# File created by Blade
# Date/Time:  Thu Jan 22 16:04:59 2015
# Frame Rate: 120.000 fps
#------------------------------------------------------
:FULLY-SPECIFIED
:DEGREES
2195
root 3.600353 36.814423 4.885788 -7.023312 -4.359393 2.023125
RightUpLeg 13.838402 -4.142681 -9.973418
RightLeg -5.531899 -0.000000 0.000000
RightFoot -9.327512 -11.152887 19.031439
RightToeBase 11.706037 -0.000000 -0.000000
LeftUpLeg 12.317584 -0.239869 6.880003
LeftLeg -2.612234 -0.000000 0.000000
LeftFoot -5.737249 4.938432 -21.930146
LeftToeBase 6.833694 -0.000000 -0.000000
Spine 2.403287 -3.388063 -3.326945
RightShoulder 17.977536 -10.977043 -19.842849
RightArm 58.756186 -18.304259 49.026465
RightForeArm -3.893049 -0.000000 21.400502
RightHand 4.515762 0.000000 -0.850334
RightHandThumb1 -24.326973 -0.000000 -32.862282
LeftShoulder -1.058735 26.954507 13.161090
LeftArm 81.599757 8.619150 -50.645291
LeftForeArm 43.408140 -0.000000 14.681648
LeftHand -16.180284 -0.000000 -3.700145
LeftHandThumb1 -26.253704 0.000000 33.147579
Head 1.684125 15.015735 3.272296
2196
root 3.599978 36.815466 4.887310 -7.000083 -4.358936 2.024025
RightUpLeg 13.816410 -4.128613 -9.972918
RightLeg -5.526757 -0.000000 0.000000
RightFoot -9.323725 -11.150792 19.050263
RightToeBase 11.682407 -0.000000 -0.000000
LeftUpLeg 12.288657 -0.240357 6.879139
LeftLeg -2.596989 -0.000000 0.000000
LeftFoot -5.738768 4.938455 -21.939459
LeftToeBase 6.858593 -0.000000 -0.000000
Spine 2.311888 -3.413449 -3.323683
RightShoulder 17.729960 -10.938096 -19.939615
RightArm 58.419234 -17.621662 48.981548
RightForeArm -3.833703 0.000000 21.448692
RightHand 4.545503 0.000000 -0.982973
RightHandThumb1 -24.326973 -0.000000 -32.862282
LeftShoulder -1.309903 26.901086 13.260684
LeftArm 81.323869 8.127554 -50.741638
LeftForeArm 43.321460 -0.000000 14.565530
LeftHand -16.123019 0.000000 -3.640174
LeftHandThumb1 -26.253704 0.000000 33.147579
Head 1.855847 15.027870 3.304986
2197
root 3.602906 36.817131 4.887422 -6.974415 -4.372371 2.036050
RightUpLeg 13.779877 -4.147297 -9.988764
RightLeg -5.515957 -0.000000 0.000000
RightFoot -9.319039 -11.131379 19.061108
RightToeBase 11.729020 -0.000000 -0.000000
LeftUpLeg 12.257171 -0.236961 6.859072
LeftLeg -2.580112 -0.000000 0.000000
LeftFoot -5.748129 4.961019 -21.923807
LeftToeBase 6.846032 -0.000000 -0.000000
Spine 2.220150 -3.393962 -3.323843
RightShoulder 17.471433 -10.909080 -20.040045
RightArm 58.064328 -16.915500 48.958905
RightForeArm -3.834428 -0.000000 21.474424
RightHand 4.615430 0.000000 -1.035066
RightHandThumb1 -24.326973 -0.000000 -32.862282
LeftShoulder -1.542457 26.872009 13.363511
LeftArm 81.044639 7.622275 -50.795441
LeftForeArm 43.251630 -0.000000 14.492613
LeftHand -16.188964 -0.000000 -3.838945
LeftHandThumb1 -26.253704 0.000000 33.147579
Head 2.021959 14.984751 3.327071
2198
root 3.602082 36.818995 4.890178 -6.970840 -4.388313 2.031679
RightUpLeg 13.770353 -4.178367 -9.992229
RightLeg -5.502023 -0.000000 0.000000
RightFoot -9.287679 -11.103668 19.054199
RightToeBase 11.677441 -0.000000 -0.000000
LeftUpLeg 12.263499 -0.156487 6.874776
LeftLeg -2.583563 -0.000000 0.000000
LeftFoot -5.725013 4.923636 -21.900303
LeftToeBase 6.875970 -0.000000 -0.000000
Spine 2.160786 -3.370829 -3.313275
RightShoulder 17.202453 -10.819159 -20.137081
RightArm 57.640766 -16.258717 48.988760
RightForeArm -3.790559 0.000000 21.547162
RightHand 4.357670 -0.000000 -1.054871
RightHandThumb1 -24.326973 -0.000000 -32.862282
LeftShoulder -1.782932 26.878222 13.466002
LeftArm 80.815759 7.066325 -50.987580
LeftForeArm 43.037823 0.000000 14.353350
LeftHand -16.156951 -0.000000 -3.698590
LeftHandThumb1 -26.253704 0.000000 33.147579
Head 2.165158 14.934634 3.347740
2199
root 3.599152 36.820813 4.896113 -6.984789 -4.373177 2.011631
RightUpLeg 13.783518 -4.211585 -9.972670
RightLeg -5.469021 -0.000000 0.000000
RightFoot -9.306970 -11.070500 19.065591
RightToeBase 11.717620 -0.000000 -0.000000
LeftUpLeg 12.280347 -0.169992 6.898218
LeftLeg -2.571275 -0.000000 0.000000
LeftFoot -5.725361 4.898954 -21.905562
LeftToeBase 6.864884 -0.000000 -0.000000
Spine 2.122415 -3.402691 -3.290067
RightShoulder 16.962620 -10.759691 -20.264530
RightArm 57.330911 -15.701978 48.714568
RightForeArm -3.558134 -0.000000 21.590523
RightHand 4.398989 0.000000 -1.128097
RightHandThumb1 -24.326973 -0.000000 -32.862282
LeftShoulder -2.061920 26.838349 13.538401
LeftArm 80.535816 6.556063 -51.026940
LeftForeArm 42.605926 -0.000000 14.247510
LeftHand -16.228636 -0.000000 -3.700735
LeftHandThumb1 -26.253704 0.000000 33.147579
Head 2.305994 14.916664 3.359890
2200
root 3.600679 36.822294 4.896310 -6.958811 -4.388563 2.015768
RightUpLeg 13.750325 -4.217857 -9.979407
RightLeg -5.465087 -0.000000 0.000000
RightFoot -9.284576 -11.046248 19.084364
RightToeBase 11.727622 -0.000000 -0.000000
LeftUpLeg 12.247555 -0.143523 6.893896
LeftLeg -2.554252 -0.000000 0.000000
LeftFoot -5.717722 4.902018 -21.922038
LeftToeBase 6.850574 -0.000000 -0.000000
Spine 2.049484 -3.415819 -3.285227
RightShoulder 16.708629 -10.713669 -20.359576
RightArm 57.004967 -15.004284 48.701374
RightForeArm -3.653631 0.000000 21.526899
RightHand 4.464963 0.000000 -1.049336
RightHandThumb1 -24.326973 -0.000000 -32.862282
LeftShoulder -2.377592 26.728952 13.605628
LeftArm 80.231632 6.100586 -51.122015
LeftForeArm 42.385192 -0.000000 14.053718
LeftHand -16.518150 -0.000000 -3.649316
LeftHandThumb1 -26.253704 0.000000 33.147579
Head 2.416509 14.908036 3.373403
2201
root 3.598326 36.824287 4.900135 -6.943350 -4.424165 2.013369
RightUpLeg 13.727322 -4.172175 -9.962145
RightLeg -5.458202 -0.000000 0.000000
RightFoot -9.293345 -11.079404 19.081124
RightToeBase 11.745866 -0.000000 -0.000000
LeftUpLeg 12.244070 -0.103503 6.904993
LeftLeg -2.551746 -0.000000 0.000000
LeftFoot -5.709930 4.899979 -21.929617
LeftToeBase 6.899238 -0.000000 -0.000000
Spine 1.969064 -3.390882 -3.279727
RightShoulder 16.475694 -10.686485 -20.469218
RightArm 56.683601 -14.368354 48.573529
RightForeArm -3.657195 -0.000000 21.490295
RightHand 4.552749 -0.000000 -1.142728
RightHandThumb1 -24.326973 -0.000000 -32.862282
LeftShoulder -2.637361 26.749377 13.704880
LeftArm 79.994791 5.571471 -51.260464
LeftForeArm 42.352704 -0.000000 13.852438
LeftHand -16.646645 -0.000000 -3.615822
LeftHandThumb1 -26.253704 0.000000 33.147579
Head 2.575645 14.902686 3.422348
2202
root 3.611657 36.826135 4.903401 -6.966638 -4.292040 2.032623
RightUpLeg 13.785836 -4.353519 -10.040651
RightLeg -5.450749 -0.000000 0.000000
RightFoot -9.260443 -10.989446 19.123157
RightToeBase 11.684957 -0.000000 -0.000000
LeftUpLeg 12.219703 -0.280121 6.832692
LeftLeg -2.508521 -0.000000 0.000000
LeftFoot -5.748957 4.971860 -21.885713
LeftToeBase 6.908108 -0.000000 -0.000000
Spine 1.962690 -3.521013 -3.283571
RightShoulder 16.219771 -10.679205 -20.612428
RightArm 56.464311 -13.804450 48.205221
RightForeArm -3.548224 -0.000000 21.436325
RightHand 4.425667 -0.000000 -1.350692
RightHandThumb1 -24.326973 -0.000000 -32.862282
LeftShoulder -2.893068 26.766553 13.751348
LeftArm 79.784021 5.016999 -51.301604
LeftForeArm 42.306709 -0.000000 13.705711
LeftHand -16.474187 0.000000 -3.710219
LeftHandThumb1 -26.253704 0.000000 33.147579
Head 2.689472 14.847270 3.405467
2203
root 3.605627 36.828019 4.905901 -6.956903 -4.343083 2.019486
RightUpLeg 13.757703 -4.273728 -10.000306
RightLeg -5.432812 -0.000000 0.000000
RightFoot -9.269133 -11.043910 19.100691
RightToeBase 11.673501 -0.000000 -0.000000
LeftUpLeg 12.224362 -0.205656 6.866907
LeftLeg -2.506121 -0.000000 0.000000
LeftFoot -5.732065 4.938059 -21.904874
LeftToeBase 6.899442 -0.000000 -0.000000
Spine 1.902324 -3.449963 -3.290762
RightShoulder 15.979788 -10.651195 -20.671616
RightArm 56.164199 -13.223569 47.918270
RightForeArm -3.556871 -0.000000 21.375297
RightHand 4.359899 -0.000000 -1.228606
RightHandThumb1 -24.326973 -0.000000 -32.862282
LeftShoulder -3.126589 26.720846 13.887962
LeftArm 79.522263 4.522447 -51.463510
LeftForeArm 42.378541 0.000000 13.500529
LeftHand -16.482132 -0.000000 -3.485762
LeftHandThumb1 -26.253704 0.000000 33.147579
Head 2.814577 14.753362 3.484101
2204
root 3.600645 36.829393 4.909262 -6.954715 -4.397710 2.017266
RightUpLeg 13.738979 -4.178452 -9.969070
RightLeg -5.418167 -0.000000 0.000000
RightFoot -9.298248 -11.104591 19.087499
RightToeBase 11.727579 -0.000000 -0.000000
LeftUpLeg 12.236100 -0.129803 6.886962
LeftLeg -2.494687 -0.000000 0.000000
LeftFoot -5.718895 4.904181 -21.954199
LeftToeBase 6.826189 -0.000000 -0.000000
Spine 1.843470 -3.380975 -3.307358
RightShoulder 15.764700 -10.669363 -20.758229
RightArm 55.887852 -12.578446 47.676481
RightForeArm -3.402348 -0.000000 21.300086
RightHand 4.473078 0.000000 -1.291741
RightHandThumb1 -24.326973 -0.000000 -32.862282
LeftShoulder -3.339832 26.690717 14.037483
LeftArm 79.254408 4.009998 -51.634305
LeftForeArm 42.570724 -0.000000 13.306007
LeftHand -16.535014 -0.000000 -3.358467
LeftHandThumb1 -26.253704 0.000000 33.147579
Head 2.966338 14.702738 3.574927
2205
root 3.597332 36.830794 4.912980 -6.943654 -4.415849 2.017800
RightUpLeg 13.722364 -4.132182 -9.954104
RightLeg -5.402228 -0.000000 0.000000
RightFoot -9.325177 -11.158852 19.087630
RightToeBase 11.745134 -0.000000 -0.000000
LeftUpLeg 12.230112 -0.088920 6.899574
LeftLeg -2.487574 -0.000000 0.000000
LeftFoot -5.703607 4.884066 -21.933009
LeftToeBase 6.852616 -0.000000 -0.000000
Spine 1.779811 -3.341266 -3.323290
RightShoulder 15.547552 -10.736422 -20.862863
RightArm 55.676081 -11.996325 47.288237
RightForeArm -3.291443 -0.000000 21.208543
RightHand 4.208373 -0.000000 -1.223214
RightHandThumb1 -24.326973 -0.000000 -32.862282
LeftShoulder -3.550374 26.682339 14.159999
LeftArm 78.999751 3.493239 -51.595559
LeftForeArm 42.642150 0.000000 13.180921
LeftHand -16.623563 -0.000000 -3.543591
LeftHandThumb1 -26.253704 0.000000 33.147579
Head 3.094404 14.641449 3.637981
2206
root 3.593601 36.833360 4.915116 -6.904883 -4.433336 2.018160
RightUpLeg 13.673605 -4.075260 -9.931349
RightLeg -5.385669 -0.000000 0.000000
RightFoot -9.340834 -11.202394 19.082002
RightToeBase 11.746507 -0.000000 -0.000000
LeftUpLeg 12.191235 -0.047041 6.910163
LeftLeg -2.468426 -0.000000 0.000000
LeftFoot -5.688411 4.857503 -21.974960
LeftToeBase 6.881517 -0.000000 -0.000000
Spine 1.688760 -3.340569 -3.340432
RightShoulder 15.370731 -10.658858 -20.953538
RightArm 55.316844 -11.432611 47.134503
RightForeArm -3.433881 -0.000000 21.106574
RightHand 4.203629 -0.000000 -1.396833
RightHandThumb1 -24.326973 -0.000000 -32.862282
LeftShoulder -3.803490 26.622824 14.262566
LeftArm 78.719239 2.996769 -51.773064
LeftForeArm 42.977335 -0.000000 12.983482
LeftHand -16.498692 0.000000 -3.466166
LeftHandThumb1 -26.253704 0.000000 33.147579
Head 3.217330 14.627725 3.700237
2207
root 3.594622 36.835610 4.919685 -6.913304 -4.393938 1.994465
RightUpLeg 13.695585 -4.094844 -9.910811
RightLeg -5.374775 -0.000000 0.000000
RightFoot -9.339402 -11.220467 19.122719
RightToeBase 11.743485 -0.000000 -0.000000
LeftUpLeg 12.192141 -0.081077 6.927556
LeftLeg -2.457932 -0.000000 0.000000
LeftFoot -5.693157 4.863760 -21.927782
LeftToeBase 6.864082 -0.000000 -0.000000
Spine 1.653386 -3.299167 -3.316478
RightShoulder 15.123296 -10.640098 -21.035947
RightArm 54.987377 -10.886224 46.843278
RightForeArm -3.248878 -0.000000 21.009945
RightHand 4.201769 -0.000000 -1.592050
RightHandThumb1 -24.326973 -0.000000 -32.862282
LeftShoulder -3.878780 26.531276 14.426741
LeftArm 78.395037 2.494351 -51.846431
LeftForeArm 43.020259 -0.000000 12.892291
LeftHand -16.697481 -0.000000 -3.587155
LeftHandThumb1 -26.253704 0.000000 33.147579
Head 3.361814 14.536263 3.746666
